<svg xmlns="http://www.w3.org/2000/svg" width="65.692" height="65.692" viewBox="0 0 65.692 65.692">
  <g id="bank" transform="translate(0)">
    <path id="Path_28072" data-name="Path 28072" d="M.344,458.872a1.925,1.925,0,0,0,1.581.827H63.767a1.925,1.925,0,0,0,1.8-2.6,15.941,15.941,0,0,0-2.721-4.426,1.922,1.922,0,0,0-1.46-.673H4.3a1.922,1.922,0,0,0-1.46.673A15.944,15.944,0,0,0,.122,457.1a1.921,1.921,0,0,0,.222,1.772Z" transform="translate(0 -394.007)" fill="#26dfad"/>
    <path id="Path_28073" data-name="Path 28073" d="M60,241H71.676v23.223H60Z" transform="translate(-52.302 -210.078)" fill="#ecb74b"/>
    <path id="Path_28074" data-name="Path 28074" d="M211,241h11.547v23.223H211Z" transform="translate(-183.928 -210.078)" fill="#ecb74b"/>
    <path id="Path_28075" data-name="Path 28075" d="M361,241h11.676v23.223H361Z" transform="translate(-314.682 -210.078)" fill="#ecb74b"/>
    <path id="Path_28076" data-name="Path 28076" d="M4.166,158.133a1.945,1.945,0,0,0,1.361.567h0s0,0,0,0H60.163s0,0,0,0h0a1.944,1.944,0,0,0,1.361-.567A16.766,16.766,0,0,0,65.692,151H0A16.766,16.766,0,0,0,4.166,158.133Z" transform="translate(0 -131.627)" fill="#26dfad"/>
    <path id="Path_28077" data-name="Path 28077" d="M72.789,15.525,42.029.2a1.927,1.927,0,0,0-1.722,0L9.547,15.525Z" transform="translate(-8.322 0)" fill="#26dfad"/>
  </g>
</svg>
