<svg xmlns="http://www.w3.org/2000/svg" width="46.094" height="46.096" viewBox="0 0 46.094 46.096">
  <g id="coding_4_" data-name="coding (4)" transform="translate(-3 -3)">
    <path id="Path_28544" data-name="Path 28544" d="M18.35,23a1.351,1.351,0,0,0-.845,2.408l1.44,1.152A22.559,22.559,0,0,1,18.6,23Z" transform="translate(-2.873 -4.105)" fill="#26dfad"/>
    <path id="Path_28545" data-name="Path 28545" d="M3,54.99v3.179H7.768V47.206A8.757,8.757,0,0,0,3,54.99Z" transform="translate(0 -9.074)" fill="#26dfad"/>
    <path id="Path_28546" data-name="Path 28546" d="M16.809,7.98a3.6,3.6,0,0,1,.079,2.875,2.045,2.045,0,0,0,.069,1.669l1.323,2.646a.764.764,0,0,1,.135-.117l5.314-3.543a8.066,8.066,0,0,1,4.485-1.357,6.529,6.529,0,0,0,4.062-1.425l1.975-1.581a.795.795,0,0,1,1.157.18l1.845,2.766A8.717,8.717,0,0,1,38.644,13.8l.691-1.9A6.635,6.635,0,0,0,33.1,3H26.352a25.322,25.322,0,0,0-11.93,2.983l.238.079A3.6,3.6,0,0,1,16.809,7.98Z" transform="translate(-2.345 0)" fill="#26dfad"/>
    <path id="Path_28547" data-name="Path 28547" d="M27.384,26.179a.8.8,0,0,0,.795-.795V23H25v2.384a.8.8,0,0,0,.795.795Z" transform="translate(-4.516 -4.105)" fill="#26dfad"/>
    <path id="Path_28548" data-name="Path 28548" d="M37.384,26.179a.8.8,0,0,0,.795-.795V23H35v2.384a.8.8,0,0,0,.795.795Z" transform="translate(-6.569 -4.105)" fill="#26dfad"/>
    <path id="Path_28549" data-name="Path 28549" d="M38.484,16.474a7.127,7.127,0,0,0-1.2-3.967l-1.364-2.046-1.3,1.04a8.12,8.12,0,0,1-5.055,1.773,6.48,6.48,0,0,0-3.606,1.091L21,17.672v1.164h7.153a.8.8,0,0,1,.795.795v.795h1.589v-.795a.8.8,0,0,1,.795-.795h7.153Z" transform="translate(-3.695 -1.532)" fill="#26dfad"/>
    <path id="Path_28550" data-name="Path 28550" d="M21.015,23a20.822,20.822,0,0,0,2.949,10.331H35.525A20.822,20.822,0,0,0,38.474,23H36.9v2.384a2.384,2.384,0,0,1-2.384,2.384H32.924a2.384,2.384,0,0,1-2.384-2.384v-.795H28.95v.795a2.384,2.384,0,0,1-2.384,2.384H24.977a2.384,2.384,0,0,1-2.384-2.384V23Z" transform="translate(-3.698 -4.105)" fill="#26dfad"/>
    <path id="Path_28551" data-name="Path 28551" d="M55,47.206V58.168h4.768V54.99A8.758,8.758,0,0,0,55,47.206Z" transform="translate(-10.674 -9.074)" fill="#26dfad"/>
    <path id="Path_28552" data-name="Path 28552" d="M41.994,38H13.384A2.384,2.384,0,0,0,11,40.384V56.279H44.379V40.384A2.384,2.384,0,0,0,41.994,38ZM29.438,39.113l1.272.954-4.768,6.358-1.272-.954Zm-5.954,6.273L22.359,46.51,19.18,43.331a.795.795,0,0,1,0-1.125l3.179-3.179,1.125,1.125-2.618,2.616Zm4.206,8.509a3.179,3.179,0,1,1,3.179-3.179A3.179,3.179,0,0,1,27.689,53.895ZM36.2,43.33,33.02,46.509l-1.125-1.125,2.617-2.616-2.617-2.617,1.125-1.125L36.2,42.206a.795.795,0,0,1,0,1.125Z" transform="translate(-1.642 -7.185)" fill="#ecb74b"/>
    <path id="Path_28553" data-name="Path 28553" d="M31.589,52a1.589,1.589,0,1,0,1.589,1.589A1.589,1.589,0,0,0,31.589,52Z" transform="translate(-5.542 -10.058)" fill="#ecb74b"/>
    <path id="Path_28554" data-name="Path 28554" d="M44.894,23a22.373,22.373,0,0,1-.346,3.56l1.441-1.152A1.351,1.351,0,0,0,45.146,23Z" transform="translate(-8.529 -4.105)" fill="#26dfad"/>
  </g>
</svg>
