<svg xmlns="http://www.w3.org/2000/svg" width="67.356" height="54.982" viewBox="0 0 67.356 54.982">
  <g id="college-graduation_2_" data-name="college-graduation (2)" transform="translate(0 -36.647)">
    <g id="Layer_5_59_" transform="translate(0 36.648)">
      <g id="Group_14611" data-name="Group 14611" transform="translate(0 0)">
        <path id="Path_28081" data-name="Path 28081" d="M77.467,214.792a8.765,8.765,0,0,1-8.646,0l-19.572-12s-1.767-1.083-1.767,1.37v11.987c0,6.314,11.489,13.122,25.662,13.122s25.662-6.807,25.662-13.122V203.483c0-1.969-1.256-1.007-1.256-1.007Z" transform="translate(-39.466 -174.284)" fill="#ecb74b"/>
        <path id="Path_28082" data-name="Path 28082" d="M66.229,55.6a1.811,1.811,0,0,0,0-3.354L36.413,37.339a5.75,5.75,0,0,0-5.469,0L1.128,52.249a1.811,1.811,0,0,0,0,3.354L30.944,73.89a5.75,5.75,0,0,0,5.469,0" transform="translate(0 -36.648)" fill="#26dfad"/>
        <path id="Path_28083" data-name="Path 28083" d="M360.743,206.577v-20.2s.014-.957-.554-.641a16.493,16.493,0,0,0-1.965,1.218,1.7,1.7,0,0,0-.352,1.28v18.339a.538.538,0,0,1-.33.447,3.489,3.489,0,1,0,3.519-.007A.52.52,0,0,1,360.743,206.577Z" transform="translate(-295.748 -160.516)" fill="#ecb74b"/>
      </g>
    </g>
  </g>
</svg>
