<svg xmlns="http://www.w3.org/2000/svg" width="50.038" height="43.781" viewBox="0 0 50.038 43.781">
  <g id="credit-card_3_" data-name="credit-card (3)" transform="translate(0 -32.008)">
    <g id="Group_14861" data-name="Group 14861" transform="translate(0 41.389)">
      <g id="Group_14860" data-name="Group 14860">
        <path id="Path_28486" data-name="Path 28486" d="M21.892,131.119v-3.127H3.127A3.133,3.133,0,0,0,0,131.119v6.255H22.552A28,28,0,0,1,21.892,131.119Z" transform="translate(0 -127.992)" fill="#26dfad"/>
      </g>
    </g>
    <g id="Group_14863" data-name="Group 14863" transform="translate(0 57.025)">
      <g id="Group_14862" data-name="Group 14862">
        <path id="Path_28487" data-name="Path 28487" d="M49.91,287.992c-2.133,3.287-5.385,6.083-10.045,8.76a4.7,4.7,0,0,1-4.663.006c-4.66-2.683-7.912-5.482-10.048-8.766H0v15.637a3.131,3.131,0,0,0,3.127,3.127H46.911a3.129,3.129,0,0,0,3.127-3.127V287.992Zm-35.837,9.382H7.818a1.564,1.564,0,1,1,0-3.127h6.255a1.564,1.564,0,0,1,0,3.127Z" transform="translate(0 -287.992)" fill="#26dfad"/>
      </g>
    </g>
    <g id="Group_14865" data-name="Group 14865" transform="translate(25.019 32.008)">
      <g id="Group_14864" data-name="Group 14864">
        <path id="Path_28488" data-name="Path 28488" d="M280.071,36.826l-10.946-4.691a1.57,1.57,0,0,0-1.235,0l-10.946,4.691A1.56,1.56,0,0,0,256,38.261v6.255c0,8.6,3.181,13.632,11.731,18.558a1.572,1.572,0,0,0,1.557,0c8.55-4.913,11.731-9.942,11.731-18.558V38.261A1.558,1.558,0,0,0,280.071,36.826Zm-5.648,7.105-6.255,7.818a1.581,1.581,0,0,1-1.223.585h-.066a1.569,1.569,0,0,1-1.235-.694l-3.127-4.691a1.563,1.563,0,0,1,2.6-1.733l1.942,2.912,4.916-6.148a1.564,1.564,0,0,1,2.446,1.951Z" transform="translate(-256 -32.008)" fill="#ecb74b"/>
      </g>
    </g>
  </g>
</svg>
