<svg id="Group_14927" data-name="Group 14927" xmlns="http://www.w3.org/2000/svg" width="57.756" height="57.756" viewBox="0 0 57.756 57.756">
  <circle id="Ellipse_36" data-name="Ellipse 36" cx="28.878" cy="28.878" r="28.878" transform="translate(0 0)" fill="#f2f6fc"/>
  <g id="cellphone_1_" data-name="cellphone (1)" transform="translate(17.689 10.398)">
    <path id="Path_27976" data-name="Path 27976" d="M226.053,119.527a2.527,2.527,0,1,0-2.527,2.527A2.529,2.529,0,0,0,226.053,119.527Z" transform="translate(-212.338 -108.554)" fill="#26dfad"/>
    <path id="Path_27977" data-name="Path 27977" d="M123.378,27.575V3.97A3.975,3.975,0,0,0,119.408,0H104.97A3.975,3.975,0,0,0,101,3.97V27.575Zm-8.3-4.331H109.3a1.083,1.083,0,1,1,0-2.166h5.775a1.083,1.083,0,0,1,0,2.166ZM106.414,9.89h1.21a4.665,4.665,0,0,1,.572-1.378l-.857-.857a1.083,1.083,0,1,1,1.531-1.531l.857.857a4.665,4.665,0,0,1,1.378-.572V5.2a1.083,1.083,0,0,1,2.166,0v1.21a4.665,4.665,0,0,1,1.378.572l.857-.857a1.083,1.083,0,0,1,1.531,1.531l-.857.857a4.665,4.665,0,0,1,.572,1.378h1.21a1.083,1.083,0,0,1,0,2.166h-1.21a4.665,4.665,0,0,1-.572,1.378l.857.857a1.083,1.083,0,1,1-1.531,1.531l-.857-.857a4.665,4.665,0,0,1-1.378.572v1.21a1.083,1.083,0,0,1-2.166,0v-1.21a4.665,4.665,0,0,1-1.378-.572l-.857.857a1.083,1.083,0,0,1-1.531-1.531l.857-.857a4.665,4.665,0,0,1-.572-1.378h-1.21a1.083,1.083,0,1,1,0-2.166Z" transform="translate(-101 0)" fill="#26dfad"/>
    <path id="Path_27978" data-name="Path 27978" d="M101,412v3.248a3.975,3.975,0,0,0,3.97,3.97h14.437a3.975,3.975,0,0,0,3.97-3.97V412Zm12.633,4.692h-2.887a1.083,1.083,0,1,1,0-2.166h2.887a1.083,1.083,0,1,1,0,2.166Z" transform="translate(-101 -382.259)" fill="#ecb74b"/>
  </g>
</svg>
