<svg id="Group_14925" data-name="Group 14925" xmlns="http://www.w3.org/2000/svg" width="57.756" height="57.756" viewBox="0 0 57.756 57.756">
  <circle id="Ellipse_36" data-name="Ellipse 36" cx="28.878" cy="28.878" r="28.878" transform="translate(0 0)" fill="#f2f6fc"/>
  <g id="client_1_" data-name="client (1)" transform="translate(14.466 14.465)">
    <g id="Group_14503" data-name="Group 14503" transform="translate(0 3.434)">
      <g id="Group_14502" data-name="Group 14502">
        <path id="Path_27968" data-name="Path 27968" d="M12.656,74.6c-.027-.053-4.676-4.62-4.718-4.662a1.665,1.665,0,0,0-2.483-.1,1.628,1.628,0,0,0-.135,2.229l4.56,4.577a.836.836,0,0,1,0,1.2.854.854,0,0,1-1.182,0L4.121,73.262a2.537,2.537,0,0,1-.743-1.794V62.689a1.689,1.689,0,0,0-3.378,0V71.95a3.094,3.094,0,0,0,.49,1.666l3.569,5.962H4.051A4.693,4.693,0,0,1,5.067,82.2v3.35a.845.845,0,0,0,.845.844h7.657v-9.5A3.339,3.339,0,0,0,12.656,74.6Z" transform="translate(0 -61)" fill="#26dfad"/>
      </g>
    </g>
    <g id="Group_14505" data-name="Group 14505" transform="translate(15.314 3.434)">
      <g id="Group_14504" data-name="Group 14504">
        <path id="Path_27969" data-name="Path 27969" d="M283.823,61a1.694,1.694,0,0,0-1.689,1.689v8.779a2.537,2.537,0,0,1-.743,1.794l-4.577,4.577a.854.854,0,0,1-1.182,0,.836.836,0,0,1,0-1.2l4.56-4.577a1.628,1.628,0,0,0-.135-2.229,1.665,1.665,0,0,0-2.483.1c-.042.042-4.635,4.609-4.662,4.662a3.339,3.339,0,0,0-.912,2.3v9.5h7.6a.845.845,0,0,0,.845-.844V82.2a4.694,4.694,0,0,1,1.016-2.618h-.007l3.568-5.962a3.285,3.285,0,0,0,.49-1.723V62.689A1.694,1.694,0,0,0,283.823,61Z" transform="translate(-272 -61)" fill="#26dfad"/>
      </g>
    </g>
    <g id="Group_14507" data-name="Group 14507" transform="translate(21.225 6.812)">
      <g id="Group_14506" data-name="Group 14506">
        <path id="Path_27970" data-name="Path 27970" d="M378.267,121A1.267,1.267,0,0,0,377,122.267v2.147a3.367,3.367,0,0,1,.95-.154,3.333,3.333,0,0,1,1.583.4v-2.393A1.267,1.267,0,0,0,378.267,121Z" transform="translate(-377 -121)" fill="#ecb74b"/>
      </g>
    </g>
    <g id="Group_14509" data-name="Group 14509" transform="translate(5.067 6.812)">
      <g id="Group_14508" data-name="Group 14508">
        <path id="Path_27971" data-name="Path 27971" d="M91.267,121A1.267,1.267,0,0,0,90,122.267v2.386a3.38,3.38,0,0,1,1.583-.393,3.334,3.334,0,0,1,.95.156v-2.149A1.267,1.267,0,0,0,91.267,121Z" transform="translate(-90 -121)" fill="#ecb74b"/>
      </g>
    </g>
    <g id="Group_14511" data-name="Group 14511" transform="translate(10.979)">
      <g id="Group_14510" data-name="Group 14510">
        <path id="Path_27972" data-name="Path 27972" d="M198.434,0A3.475,3.475,0,0,0,195,3.434a3.435,3.435,0,0,0,6.869,0A3.475,3.475,0,0,0,198.434,0Z" transform="translate(-195)" fill="#ecb74b"/>
      </g>
    </g>
    <g id="Group_14513" data-name="Group 14513" transform="translate(9.045 8.501)">
      <g id="Group_14512" data-name="Group 14512">
        <path id="Path_27973" data-name="Path 27973" d="M166.017,151a6.848,6.848,0,0,0-5.368,2.595c.045.046.1.082.14.13,2.205,2.194,3.439,3.366,4.093,4.031h2.326c.649-.66,1.816-1.821,3.994-3.987.053-.065.123-.116.182-.177A6.848,6.848,0,0,0,166.017,151Z" transform="translate(-160.649 -151)" fill="#ecb74b"/>
      </g>
    </g>
  </g>
</svg>
