<svg xmlns="http://www.w3.org/2000/svg" width="99" height="18" viewBox="0 0 99 18">
  <g id="Group_13080" data-name="Group 13080" transform="translate(25 -10010)">
    <path id="Polygon_3" data-name="Polygon 3" d="M9,0l2.79,5.912L18,6.875l-4.486,4.617L14.562,18,9,14.941,3.438,18l1.048-6.508L0,6.875l6.21-.963Z" transform="translate(16 10010)" fill="#26dfad"/>
    <path id="Polygon_6" data-name="Polygon 6" d="M9.5,0l2.945,5.912L19,6.875l-4.735,4.617L15.371,18,9.5,14.941,3.629,18l1.106-6.508L0,6.875l6.555-.963Z" transform="translate(35 10010)" fill="#26dfad"/>
    <path id="Polygon_4" data-name="Polygon 4" d="M9.5,0l2.945,5.912L19,6.875l-4.735,4.617L15.371,18,9.5,14.941,3.629,18l1.106-6.508L0,6.875l6.555-.963Z" transform="translate(-5 10010)" fill="#26dfad"/>
    <path id="Polygon_5" data-name="Polygon 5" d="M9,0l2.79,5.912L18,6.875l-4.486,4.617L14.562,18,9,14.941,3.438,18l1.048-6.508L0,6.875l6.21-.963Z" transform="translate(-25 10010)" fill="#26dfad"/>
    <path id="Polygon_2" data-name="Polygon 2" d="M9.5,0l2.945,5.912L19,6.875l-4.735,4.617L15.371,18,9.5,14.941,3.629,18l1.106-6.508L0,6.875l6.555-.963Z" transform="translate(55 10010)" fill="#f2f6fc"/>
  </g>
</svg>
