<svg xmlns="http://www.w3.org/2000/svg" width="337.67" height="494.076" viewBox="0 0 337.67 494.076">
  <g id="Group_15153" data-name="Group 15153" transform="translate(-989.455 -16713.326)">
    <g id="Group_14929" data-name="Group 14929" transform="translate(995.455 16713.326)">
      <circle id="Ellipse_9" data-name="Ellipse 9" cx="78.817" cy="78.817" r="78.817" transform="translate(222.929 141.993) rotate(135)" fill="#ecb74b"/>
      <path id="Path_8922" data-name="Path 8922" d="M0,166.259V.068C1.5.026,3.011,0,4.525,0A159.579,159.579,0,0,1,164.1,159.579c0,2.239-.058,4.464-.149,6.679Z" transform="translate(331.67 166.259) rotate(180)" fill="#22e6b1" fill-rule="evenodd"/>
      <path id="Path_8923" data-name="Path 8923" d="M25.907,133.967a4.013,4.013,0,1,1-4.01,4.017,4.015,4.015,0,0,1,4.01-4.017ZM25.907,0A4.013,4.013,0,1,1,21.9,4.018,4.015,4.015,0,0,1,25.907,0ZM4.01,0A4.013,4.013,0,1,1,0,4.018,4.015,4.015,0,0,1,4.01,0Zm21.9,19.138a4.013,4.013,0,1,1-4.01,4.017,4.015,4.015,0,0,1,4.01-4.017Zm-21.9,0A4.013,4.013,0,1,1,0,23.155a4.015,4.015,0,0,1,4.01-4.017Zm21.9,19.138a4.013,4.013,0,1,1-4.01,4.017,4.015,4.015,0,0,1,4.01-4.017Zm-21.9,0A4.013,4.013,0,1,1,0,42.294a4.015,4.015,0,0,1,4.01-4.017Zm21.9,19.138a4.013,4.013,0,1,1-4.01,4.017,4.015,4.015,0,0,1,4.01-4.017Zm-21.9,0A4.013,4.013,0,1,1,0,61.432a4.015,4.015,0,0,1,4.01-4.017Zm21.9,19.138A4.013,4.013,0,1,1,21.9,80.57a4.015,4.015,0,0,1,4.01-4.017Zm-21.9,0A4.013,4.013,0,1,1,0,80.57a4.015,4.015,0,0,1,4.01-4.017Zm21.9,19.138a4.013,4.013,0,1,1-4.01,4.018,4.015,4.015,0,0,1,4.01-4.018Zm-21.9,0A4.013,4.013,0,1,1,0,99.708,4.015,4.015,0,0,1,4.01,95.69Zm21.9,19.138a4.013,4.013,0,1,1-4.01,4.017,4.015,4.015,0,0,1,4.01-4.017Zm-21.9,0A4.013,4.013,0,1,1,0,118.846a4.015,4.015,0,0,1,4.01-4.017Zm0,19.138A4.013,4.013,0,1,1,0,137.984,4.015,4.015,0,0,1,4.01,133.967Z" transform="translate(109.65 141.992) rotate(180)" fill="#22e6b1" fill-rule="evenodd"/>
    </g>
    <g id="Group_14930" data-name="Group 14930" transform="translate(989.455 16953.943)">
      <circle id="Ellipse_9-2" data-name="Ellipse 9" cx="78.817" cy="78.817" r="78.817" transform="translate(222.929 141.993) rotate(135)" fill="#ecb74b"/>
      <path id="Path_8922-2" data-name="Path 8922" d="M0,166.259V.068C1.5.026,3.011,0,4.525,0A159.579,159.579,0,0,1,164.1,159.579c0,2.239-.058,4.464-.149,6.679Z" transform="translate(331.67 166.259) rotate(180)" fill="#22e6b1" fill-rule="evenodd"/>
      <path id="Path_8923-2" data-name="Path 8923" d="M25.907,133.967a4.013,4.013,0,1,1-4.01,4.017,4.015,4.015,0,0,1,4.01-4.017ZM25.907,0A4.013,4.013,0,1,1,21.9,4.018,4.015,4.015,0,0,1,25.907,0ZM4.01,0A4.013,4.013,0,1,1,0,4.018,4.015,4.015,0,0,1,4.01,0Zm21.9,19.138a4.013,4.013,0,1,1-4.01,4.017,4.015,4.015,0,0,1,4.01-4.017Zm-21.9,0A4.013,4.013,0,1,1,0,23.155a4.015,4.015,0,0,1,4.01-4.017Zm21.9,19.138a4.013,4.013,0,1,1-4.01,4.017,4.015,4.015,0,0,1,4.01-4.017Zm-21.9,0A4.013,4.013,0,1,1,0,42.294a4.015,4.015,0,0,1,4.01-4.017Zm21.9,19.138a4.013,4.013,0,1,1-4.01,4.017,4.015,4.015,0,0,1,4.01-4.017Zm-21.9,0A4.013,4.013,0,1,1,0,61.432a4.015,4.015,0,0,1,4.01-4.017Zm21.9,19.138A4.013,4.013,0,1,1,21.9,80.57a4.015,4.015,0,0,1,4.01-4.017Zm-21.9,0A4.013,4.013,0,1,1,0,80.57a4.015,4.015,0,0,1,4.01-4.017Zm21.9,19.138a4.013,4.013,0,1,1-4.01,4.018,4.015,4.015,0,0,1,4.01-4.018Zm-21.9,0A4.013,4.013,0,1,1,0,99.708,4.015,4.015,0,0,1,4.01,95.69Zm21.9,19.138a4.013,4.013,0,1,1-4.01,4.017,4.015,4.015,0,0,1,4.01-4.017Zm-21.9,0A4.013,4.013,0,1,1,0,118.846a4.015,4.015,0,0,1,4.01-4.017Zm0,19.138A4.013,4.013,0,1,1,0,137.984,4.015,4.015,0,0,1,4.01,133.967Z" transform="translate(109.65 141.992) rotate(180)" fill="#22e6b1" fill-rule="evenodd"/>
    </g>
  </g>
</svg>
