<svg id="Group_14926" data-name="Group 14926" xmlns="http://www.w3.org/2000/svg" width="57.756" height="57.756" viewBox="0 0 57.756 57.756">
  <circle id="Ellipse_36" data-name="Ellipse 36" cx="28.878" cy="28.878" r="28.878" transform="translate(0 0)" fill="#f2f6fc"/>
  <g id="download-to-storage-drive_1_" data-name="download-to-storage-drive (1)" transform="translate(13.84 14.997)">
    <g id="Group_14515" data-name="Group 14515" transform="translate(0 0)">
      <path id="Path_27974" data-name="Path 27974" d="M29.568,311.139a1.673,1.673,0,0,0-1.229-.506H19.953L17.5,313.091a3.491,3.491,0,0,1-4.916,0l-2.44-2.458h-8.4a1.675,1.675,0,0,0-1.229.506A1.673,1.673,0,0,0,0,312.368v5.783a1.673,1.673,0,0,0,.506,1.229,1.673,1.673,0,0,0,1.229.506h26.6a1.727,1.727,0,0,0,1.735-1.735v-5.783A1.672,1.672,0,0,0,29.568,311.139Zm-6.777,6.091a1.135,1.135,0,1,1,.343-.813A1.113,1.113,0,0,1,22.791,317.23Zm4.627,0a1.134,1.134,0,1,1,.344-.813A1.111,1.111,0,0,1,27.418,317.23Z" transform="translate(0 -292.125)" fill="#26dfad"/>
      <path id="Path_27975" data-name="Path 27975" d="M99.526,37.591a1.135,1.135,0,0,0,1.627,0l8.1-8.1a1.043,1.043,0,0,0,.253-1.265,1.081,1.081,0,0,0-1.066-.7h-4.627v-8.1a1.173,1.173,0,0,0-1.156-1.157H98.026a1.173,1.173,0,0,0-1.157,1.157v8.1H92.242a1.081,1.081,0,0,0-1.066.7,1.043,1.043,0,0,0,.253,1.265Z" transform="translate(-85.302 -18.27)" fill="#ecb74b"/>
    </g>
  </g>
</svg>
