<svg xmlns="http://www.w3.org/2000/svg" width="112" height="112" viewBox="0 0 112 112">
  <g id="Group_14406" data-name="Group 14406" transform="translate(-664 -10125.438)">
    <g id="Group_13323" data-name="Group 13323">
      <circle id="Ellipse_36" data-name="Ellipse 36" cx="56" cy="56" r="56" transform="translate(664 10125.438)" fill="#f2f6fc"/>
      <g id="layer" transform="translate(689.747 10150.852)">
        <path id="Path_12883" data-name="Path 12883" d="M59.525,266.547l-7.752-3.859-17.043,8.486a10.075,10.075,0,0,1-8.955,0L8.733,262.688.981,266.547a1.773,1.773,0,0,0,0,3.174l26.374,13.132a6.535,6.535,0,0,0,5.795,0l26.374-13.133a1.773,1.773,0,0,0,0-3.174Zm0,0" transform="translate(0 -237.55)" fill="#26dfad"/>
        <path id="Path_12884" data-name="Path 12884" d="M59.525,423.691l-7.752-3.86-17.043,8.486a10.082,10.082,0,0,1-8.955,0L8.733,419.832l-7.752,3.86a1.773,1.773,0,0,0,0,3.174L27.356,440a6.532,6.532,0,0,0,5.795,0l26.374-13.132a1.773,1.773,0,0,0,0-3.174Zm0,0" transform="translate(0 -379.837)" fill="#ecb74b"/>
        <path id="Path_12885" data-name="Path 12885" d="M.982,17.317,27.357,30.45a6.532,6.532,0,0,0,5.795,0L59.526,17.317a1.773,1.773,0,0,0,0-3.174L33.151,1.011a6.536,6.536,0,0,0-5.795,0L.982,14.143a1.773,1.773,0,0,0,0,3.174Zm0,0" transform="translate(-0.001)" fill="#26dfad"/>
      </g>
    </g>
  </g>
</svg>
