<svg xmlns="http://www.w3.org/2000/svg" width="34.385" height="34.385" viewBox="0 0 34.385 34.385">
  <path id="Icon_material-account-circle" data-name="Icon material-account-circle" d="M20.192,3A17.192,17.192,0,1,0,37.385,20.192,17.2,17.2,0,0,0,20.192,3Zm0,5.158a5.158,5.158,0,1,1-5.158,5.158A5.151,5.151,0,0,1,20.192,8.158Zm0,24.413A12.379,12.379,0,0,1,9.877,27.035c.052-3.421,6.877-5.3,10.315-5.3,3.421,0,10.264,1.874,10.315,5.3A12.379,12.379,0,0,1,20.192,32.571Z" transform="translate(-3 -3)" fill="#26d8a8"/>
</svg>
