<svg id="interview" xmlns="http://www.w3.org/2000/svg" width="49.942" height="49.941" viewBox="0 0 49.942 49.941">
  <path id="Path_28478" data-name="Path 28478" d="M130,79.731h1.326V81.4a1.463,1.463,0,0,0,2.117,1.309l5.96-2.98h9.4a1.462,1.462,0,0,0,1.295-.782l-5.12-2.56h-8.712A4.394,4.394,0,0,1,131.875,72V64.267H130a1.463,1.463,0,0,0-1.463,1.463V78.267A1.463,1.463,0,0,0,130,79.731Z" transform="translate(-115.996 -57.998)" fill="#ecb74b"/>
  <path id="Path_28479" data-name="Path 28479" d="M363.163,257.067a3.873,3.873,0,0,0-3.906,3.874v6.252h-1.408a6.515,6.515,0,0,0-6.515,6.515v8.225h6.285a1.463,1.463,0,0,0,1.463-1.463v-5.529h1.408A6.515,6.515,0,0,0,367,268.426v-7.414A3.92,3.92,0,0,0,363.163,257.067Z" transform="translate(-317.063 -231.992)" fill="#26dfad"/>
  <path id="Path_28480" data-name="Path 28480" d="M442.385,199.069a3.134,3.134,0,1,0-3.134-3.134A3.138,3.138,0,0,0,442.385,199.069Z" transform="translate(-396.406 -173.994)" fill="#26dfad"/>
  <path id="Path_28481" data-name="Path 28481" d="M194.263,15.464h9.4l5.96,2.98a1.463,1.463,0,0,0,2.117-1.309V15.464h1.326A1.463,1.463,0,0,0,214.532,14V1.463A1.463,1.463,0,0,0,213.069,0H194.263A1.463,1.463,0,0,0,192.8,1.463V14a1.463,1.463,0,0,0,1.463,1.463Zm6.269-9.195H206.8a1.463,1.463,0,0,1,0,2.926h-6.269a1.463,1.463,0,0,1,0-2.926Z" transform="translate(-173.994)" fill="#ecb74b"/>
  <path id="Path_28482" data-name="Path 28482" d="M130,292.126h21.94a1.463,1.463,0,1,0,0-2.926H130a1.463,1.463,0,1,0,0,2.926Z" transform="translate(-115.996 -260.991)" fill="#26dfad"/>
  <path id="Path_28483" data-name="Path 28483" d="M9.156,267.193H7.748v-6.252a3.873,3.873,0,0,0-3.906-3.874A3.92,3.92,0,0,0,0,261.012v7.414a6.515,6.515,0,0,0,6.515,6.515H7.924v5.529a1.463,1.463,0,0,0,1.463,1.463h6.285v-8.225A6.515,6.515,0,0,0,9.156,267.193Z" transform="translate(0 -231.992)" fill="#26dfad"/>
  <path id="Path_28484" data-name="Path 28484" d="M11.616,199.069a3.134,3.134,0,1,0-3.134-3.134A3.138,3.138,0,0,0,11.616,199.069Z" transform="translate(-7.655 -173.994)" fill="#26dfad"/>
  <path id="Path_28485" data-name="Path 28485" d="M190.667,349.2h12.745v15.88H190.667Z" transform="translate(-172.069 -315.138)" fill="#26dfad"/>
</svg>
