<svg xmlns="http://www.w3.org/2000/svg" width="42.021" height="69.211" viewBox="0 0 42.021 69.211">
  <g id="Medical_Application" data-name="Medical Application" transform="translate(-15 -4)">
    <path id="Path_28068" data-name="Path 28068" d="M31.944,33.651v3.708h2.472V33.651a1.236,1.236,0,0,1,1.236-1.236h3.708V29.944H35.651a1.236,1.236,0,0,1-1.236-1.236V25H31.944v3.708a1.236,1.236,0,0,1-1.236,1.236H27v2.472h3.708A1.236,1.236,0,0,1,31.944,33.651Z" transform="translate(2.831 4.954)" fill="#ecb74b"/>
    <path id="Path_28069" data-name="Path 28069" d="M50.841,4H21.18A6.187,6.187,0,0,0,15,10.18V67.031a6.187,6.187,0,0,0,6.18,6.18H50.841a6.187,6.187,0,0,0,6.18-6.18V10.18A6.187,6.187,0,0,0,50.841,4Zm-17.3,4.944h9.887a1.236,1.236,0,0,1,0,2.472H33.539a1.236,1.236,0,0,1,0-2.472Zm-4.944,0a1.236,1.236,0,1,1-1.236,1.236A1.236,1.236,0,0,1,28.6,8.944ZM39.718,68.267H32.3a3.708,3.708,0,1,1,0-7.415h7.415a3.708,3.708,0,0,1,0,7.415ZM52.077,57.144a1.236,1.236,0,0,1-1.236,1.236H21.18a1.236,1.236,0,0,1-1.236-1.236V15.123a1.236,1.236,0,0,1,1.236-1.236H50.841a1.236,1.236,0,0,1,1.236,1.236Z" fill="#26dfad"/>
    <path id="Path_28070" data-name="Path 28070" d="M36.651,52H29.236a1.236,1.236,0,1,0,0,2.472h7.415a1.236,1.236,0,1,0,0-2.472Z" transform="translate(3.067 11.324)" fill="#26dfad"/>
    <path id="Path_28071" data-name="Path 28071" d="M21,53.549H48.19V14H21ZM25.944,31.3a1.236,1.236,0,0,1,1.236-1.236h3.708V26.359a1.236,1.236,0,0,1,1.236-1.236h4.944A1.236,1.236,0,0,1,38.3,26.359v3.708H42.01A1.236,1.236,0,0,1,43.246,31.3v4.944a1.236,1.236,0,0,1-1.236,1.236H38.3V41.19a1.236,1.236,0,0,1-1.236,1.236H32.123a1.236,1.236,0,0,1-1.236-1.236V37.482H27.18a1.236,1.236,0,0,1-1.236-1.236Z" transform="translate(1.415 2.359)" fill="#ecb74b"/>
  </g>
</svg>
