<svg xmlns="http://www.w3.org/2000/svg" width="199.237" height="42.082" viewBox="0 0 199.237 42.082">
  <g id="Page-1" transform="translate(-0.808 -0.482)">
    <g id="Group" transform="translate(0.808 0.482)">
      <path id="Fill-1" d="M278.3,85.068a4.12,4.12,0,0,1-1.828,2.584,7.367,7.367,0,0,1-3.813.825h-5.2l1.827-6.817h5.2a5.137,5.137,0,0,1,3.371.824,2.413,2.413,0,0,1,.444,2.584m5.389-.147q.993-3.7-.823-5.68t-6.36-1.979H264.889L257.9,103.355h5.644l2.819-10.518h3.7a4.015,4.015,0,0,1,1.961.4,1.771,1.771,0,0,1,.846,1.429l1.007,8.685h6.047l-.981-8.1q-.3-2.712-2.481-3.188a10.669,10.669,0,0,0,4.657-2.676,9.763,9.763,0,0,0,2.572-4.471" transform="translate(-230.864 -69.189)" fill="#072654" fill-rule="evenodd"/>
      <path id="Fill-3" d="M509.623,153.886a8.408,8.408,0,0,1-2.179,4.031,4.951,4.951,0,0,1-3.525,1.393,2.934,2.934,0,0,1-2.839-1.374,5.46,5.46,0,0,1-.052-3.976,8.554,8.554,0,0,1,2.225-4.068,5.01,5.01,0,0,1,3.581-1.465,2.819,2.819,0,0,1,2.774,1.411,5.78,5.78,0,0,1,.015,4.049Zm2.474-9.235-.707,2.639a4.143,4.143,0,0,0-1.772-2.272,5.917,5.917,0,0,0-3.257-.843,9.266,9.266,0,0,0-4.58,1.228,12.089,12.089,0,0,0-3.842,3.463,15.115,15.115,0,0,0-2.409,5.094,10.857,10.857,0,0,0-.306,5.039,5.458,5.458,0,0,0,2,3.353,6.332,6.332,0,0,0,3.955,1.172,8.758,8.758,0,0,0,3.7-.806,8.609,8.609,0,0,0,2.981-2.235l-.737,2.748h5.46l4.979-18.58Z" transform="translate(-443.081 -129.065)" fill="#072654" fill-rule="evenodd"/>
      <path id="Fill-5" d="M717.126,148.706H701.258l-1.109,4.141h9.234L697.174,163.4l-1.042,3.885h16.381l1.11-4.141H703.73l12.395-10.7Z" transform="translate(-623.018 -133.12)" fill="#072654" fill-rule="evenodd"/>
      <path id="Fill-7" d="M905.726,153.849a8.535,8.535,0,0,1-2.182,4.1,4.921,4.921,0,0,1-3.495,1.355q-4.289,0-2.825-5.46a8.472,8.472,0,0,1,2.194-4.086,5.013,5.013,0,0,1,3.556-1.375,2.82,2.82,0,0,1,2.765,1.375,5.847,5.847,0,0,1-.014,4.086m3.194-8.5a8.987,8.987,0,0,0-4.817-1.172,12.931,12.931,0,0,0-5.5,1.172,11.939,11.939,0,0,0-4.311,3.372,13.666,13.666,0,0,0-2.567,5.131,9.788,9.788,0,0,0-.183,5.13,5.526,5.526,0,0,0,2.5,3.372,9.151,9.151,0,0,0,4.871,1.172,12.713,12.713,0,0,0,5.446-1.172,12,12,0,0,0,4.292-3.372,13.683,13.683,0,0,0,2.565-5.13,9.792,9.792,0,0,0,.184-5.131,5.558,5.558,0,0,0-2.486-3.372" transform="translate(-797.647 -129.065)" fill="#072654" fill-rule="evenodd"/>
      <path id="Fill-9" d="M1478.141,153.886a8.412,8.412,0,0,1-2.18,4.031,4.95,4.95,0,0,1-3.526,1.393,2.935,2.935,0,0,1-2.837-1.374,5.456,5.456,0,0,1-.052-3.976,8.557,8.557,0,0,1,2.225-4.068,5.012,5.012,0,0,1,3.582-1.465,2.82,2.82,0,0,1,2.774,1.411,5.788,5.788,0,0,1,.015,4.049Zm2.473-9.235-.707,2.639a4.144,4.144,0,0,0-1.772-2.272,5.916,5.916,0,0,0-3.257-.843,9.268,9.268,0,0,0-4.58,1.228,12.094,12.094,0,0,0-3.841,3.463,15.1,15.1,0,0,0-2.409,5.094,10.871,10.871,0,0,0-.306,5.039,5.451,5.451,0,0,0,2,3.353,6.333,6.333,0,0,0,3.955,1.172,8.76,8.76,0,0,0,3.7-.806,8.61,8.61,0,0,0,2.981-2.235l-.737,2.748h5.459l4.979-18.58Z" transform="translate(-1309.759 -129.065)" fill="#072654" fill-rule="evenodd"/>
      <path id="Fill-11" d="M1104.627,149.947l1.391-5.057a4.11,4.11,0,0,0-1.88-.367,7.5,7.5,0,0,0-3.6.935,7.914,7.914,0,0,0-2.553,2.226l.724-2.723-1.582,0h-3.877l-5.017,18.58h5.535l2.6-9.711a6.158,6.158,0,0,1,2.042-3.316,5.651,5.651,0,0,1,3.672-1.191,5.412,5.412,0,0,1,2.546.623" transform="translate(-973.886 -129.377)" fill="#072654" fill-rule="evenodd"/>
      <path id="Fill-13" d="M1232.052,153.962a8.228,8.228,0,0,1-2.165,3.976,4.971,4.971,0,0,1-3.52,1.374,2.878,2.878,0,0,1-2.8-1.392,5.606,5.606,0,0,1-.038-4.031,8.424,8.424,0,0,1,2.2-4.049,5,5,0,0,1,3.55-1.411,2.767,2.767,0,0,1,2.739,1.466,5.871,5.871,0,0,1,.028,4.068m3.869-8.557a6.1,6.1,0,0,0-3.922-1.227,8.693,8.693,0,0,0-3.975.952,8.252,8.252,0,0,0-3.061,2.6l.017-.122.931-2.959h-1.071v0h-4.333l-1.375,5.138c-.017.06-.029.115-.045.176l-5.676,21.182h5.534l2.858-10.664a3.811,3.811,0,0,0,1.746,2.235,6.171,6.171,0,0,0,3.266.806,9.585,9.585,0,0,0,4.6-1.172,11.415,11.415,0,0,0,3.793-3.353,14.857,14.857,0,0,0,2.376-5.039,11.246,11.246,0,0,0,.321-5.094,5.673,5.673,0,0,0-1.985-3.463" transform="translate(-1085.903 -129.068)" fill="#072654" fill-rule="evenodd"/>
      <path id="Fill-15" d="M1687.327,148.711l0-.005h-3.352c-.107,0-.2,0-.3.005h-1.739l-.89,1.24c-.072.093-.143.187-.22.3l-.1.144-7.071,9.847-1.467-11.532H1666.4l2.934,17.523-6.477,8.973h5.77l1.57-2.224c.046-.066.086-.12.136-.191l1.832-2.6.052-.074,8.2-11.619,6.906-9.779.008-.008Z" transform="translate(-1488.093 -133.12)" fill="#072654" fill-rule="evenodd"/>
      <path id="Fill-17" d="M108.535,11.545l-1.657,6.1,9.48-6.131-6.2,23.132,6.3.006L125.613.482Z" transform="translate(-95.725 -0.482)" fill="#3395ff" fill-rule="evenodd"/>
      <path id="Fill-19" d="M3.414,147.325.808,157.049h12.9l5.28-19.783L3.414,147.325" transform="translate(-0.808 -122.883)" fill="#072654" fill-rule="evenodd"/>
    </g>
  </g>
</svg>
