<svg xmlns="http://www.w3.org/2000/svg" width="49.164" height="43.129" viewBox="0 0 49.164 43.129">
  <g id="partnership" transform="translate(0)">
    <path id="Path_28423" data-name="Path 28423" d="M45.318,235.084l-3.055,3.055a2.161,2.161,0,0,0,3.055,3.055l3.055-3.055a2.161,2.161,0,1,0-3.055-3.055Zm0,0" transform="translate(-37.632 -211.938)" fill="#ecb74b"/>
    <path id="Path_28424" data-name="Path 28424" d="M151.384,341.15l-3.055,3.056a2.16,2.16,0,1,0,3.055,3.055l3.055-3.055a2.161,2.161,0,0,0-3.055-3.056Zm0,0" transform="translate(-133.513 -307.82)" fill="#ecb74b"/>
    <path id="Path_28425" data-name="Path 28425" d="M225.631,398.258l1.018-1.018a2.161,2.161,0,1,0-3.055-3.055l-1.018,1.018a2.161,2.161,0,1,0,3.055,3.056Zm0,0" transform="translate(-200.631 -355.761)" fill="#ecb74b"/>
    <path id="Path_28426" data-name="Path 28426" d="M100.387,266.9,95.295,272a2.16,2.16,0,1,0,3.055,3.056l5.093-5.092a2.161,2.161,0,1,0-3.055-3.055Zm0,0" transform="translate(-85.572 -240.703)" fill="#ecb74b"/>
    <path id="Path_28427" data-name="Path 28427" d="M18.38,5.66l-3.7-3.738a1.44,1.44,0,0,0-2.037,0L.422,14.143a1.44,1.44,0,0,0,0,2.037l2.5,2.536a7.207,7.207,0,0,1,1.74,2.815l.481,1.443.509-.509a5.048,5.048,0,0,1,7.129,0,4.981,4.981,0,0,1,1.254,2.167A5.007,5.007,0,0,1,20.8,31.4a4.95,4.95,0,0,1,3.635,4.877,5.022,5.022,0,0,1,3.624,1.468l2.037,2.037a2.16,2.16,0,1,0,3.055-3.055l-3.564-3.564a1.44,1.44,0,0,1,2.037-2.037l3.565,3.565a2.161,2.161,0,1,0,3.055-3.055l-3.565-3.565a1.44,1.44,0,0,1,2.037-2.037l3.565,3.564a2.16,2.16,0,1,0,3.055-3.055l-8.76-8.76a7.214,7.214,0,0,1-9.063-.916,1.441,1.441,0,0,0-2.037,0,7.21,7.21,0,0,1-10.185,0,4.325,4.325,0,0,1,0-6.111Zm0,0" transform="translate(0 -1.356)" fill="#26dfad"/>
    <path id="Path_28428" data-name="Path 28428" d="M176.758.422a1.44,1.44,0,0,0-2.037,0l-3.046,3.046a2.852,2.852,0,0,1-2.016.835H164.48a4.321,4.321,0,0,0-3.055,1.266l-5.864,5.864a1.426,1.426,0,0,0,0,2.037,4.315,4.315,0,0,0,6.111,0,4.328,4.328,0,0,1,5.6-.438,5.537,5.537,0,0,0,7.289-.23l.351-.351,9.91,9.91a2.974,2.974,0,0,0,.006-1.543,3.132,3.132,0,0,1,.738-2.724l3.413-3.413a1.44,1.44,0,0,0,0-2.037Zm0,0" transform="translate(-140.237 0)" fill="#ecb74b"/>
  </g>
</svg>
