<svg xmlns="http://www.w3.org/2000/svg" width="67.185" height="72.965" viewBox="0 0 67.185 72.965">
  <g id="passport" transform="translate(-18.584)">
    <g id="Group_14581" data-name="Group 14581" transform="translate(27.441 41.392)">
      <g id="Group_14580" data-name="Group 14580">
        <path id="Path_28047" data-name="Path 28047" d="M80.925,266.152H75.537a12.418,12.418,0,0,0,7.516,6.269A24.677,24.677,0,0,1,80.925,266.152Z" transform="translate(-75.537 -266.152)" fill="#ecb74b"/>
      </g>
    </g>
    <g id="Group_14583" data-name="Group 14583" transform="translate(35.372 41.392)">
      <g id="Group_14582" data-name="Group 14582" transform="translate(0)">
        <path id="Path_28048" data-name="Path 28048" d="M126.529,266.152a20.83,20.83,0,0,0,2.757,6.806c.123,0,.238.036.362.036s.239-.033.361-.036a20.779,20.779,0,0,0,2.757-6.806Z" transform="translate(-126.529 -266.152)" fill="#ecb74b"/>
      </g>
    </g>
    <g id="Group_14585" data-name="Group 14585" transform="translate(44.532 32.682)">
      <g id="Group_14584" data-name="Group 14584">
        <path id="Path_28049" data-name="Path 28049" d="M191.39,210.152h-5.955a29.4,29.4,0,0,1,.175,3.11,29.043,29.043,0,0,1-.179,3.11h5.958a11.173,11.173,0,0,0,0-6.221Z" transform="translate(-185.432 -210.152)" fill="#ecb74b"/>
      </g>
    </g>
    <g id="Group_14587" data-name="Group 14587" transform="translate(42.02 23.923)">
      <g id="Group_14586" data-name="Group 14586">
        <path id="Path_28050" data-name="Path 28050" d="M169.28,153.831a24.16,24.16,0,0,1,2.139,6.271H176.8A12.419,12.419,0,0,0,169.28,153.831Z" transform="translate(-169.28 -153.831)" fill="#ecb74b"/>
      </g>
    </g>
    <g id="Group_14589" data-name="Group 14589" transform="translate(35.369 23.351)">
      <g id="Group_14588" data-name="Group 14588" transform="translate(0)">
        <path id="Path_28051" data-name="Path 28051" d="M130,150.189c-.125,0-.241-.037-.366-.037s-.239.033-.362.036a20.643,20.643,0,0,0-2.76,6.806h6.244A20.68,20.68,0,0,0,130,150.189Z" transform="translate(-126.511 -150.152)" fill="#ecb74b"/>
      </g>
    </g>
    <g id="Group_14591" data-name="Group 14591" transform="translate(34.758 32.682)">
      <g id="Group_14590" data-name="Group 14590" transform="translate(0)">
        <path id="Path_28052" data-name="Path 28052" d="M129.855,210.152h-7.074a26.587,26.587,0,0,0-.2,3.11,26.317,26.317,0,0,0,.2,3.11h7.069a26.485,26.485,0,0,0,.2-3.11A26.8,26.8,0,0,0,129.855,210.152Z" transform="translate(-122.585 -210.152)" fill="#ecb74b"/>
      </g>
    </g>
    <g id="Group_14593" data-name="Group 14593" transform="translate(27.441 23.923)">
      <g id="Group_14592" data-name="Group 14592" transform="translate(0)">
        <path id="Path_28053" data-name="Path 28053" d="M75.538,160.1h5.383a24.242,24.242,0,0,1,2.137-6.271A12.42,12.42,0,0,0,75.538,160.1Z" transform="translate(-75.538 -153.831)" fill="#ecb74b"/>
      </g>
    </g>
    <g id="Group_14595" data-name="Group 14595" transform="translate(26.049 32.682)">
      <g id="Group_14594" data-name="Group 14594" transform="translate(0)">
        <path id="Path_28054" data-name="Path 28054" d="M72.8,213.262a29.354,29.354,0,0,1,.176-3.11H67.026a11.173,11.173,0,0,0,0,6.221h5.959A28.837,28.837,0,0,1,72.8,213.262Z" transform="translate(-66.584 -210.152)" fill="#ecb74b"/>
      </g>
    </g>
    <g id="Group_14597" data-name="Group 14597" transform="translate(42.025 41.391)">
      <g id="Group_14596" data-name="Group 14596" transform="translate(0)">
        <path id="Path_28055" data-name="Path 28055" d="M171.438,266.151a24.6,24.6,0,0,1-2.127,6.269,12.42,12.42,0,0,0,7.515-6.269Z" transform="translate(-169.311 -266.151)" fill="#ecb74b"/>
      </g>
    </g>
    <g id="Group_14599" data-name="Group 14599" transform="translate(44.54 0)">
      <g id="Group_14598" data-name="Group 14598" transform="translate(0 0)">
        <path id="Path_28056" data-name="Path 28056" d="M223.021,7.9,194.179.171a4.977,4.977,0,0,0-6.095,3.519l-2.6,9.708h11.369a4.942,4.942,0,0,1,3.805,1.8L205,16.366l8.191-7.638,2.293.615L210.35,17.8l4.052,1.086,3.112-1.829,1.529.41-2.414,3.655.262,4.372-1.529-.41-1.781-3.14-4.052-1.086.217,9.891-2.293-.615-3.276-10.71-2.351-.63V48.722l2.563-9.75,2.4.644L201.828,58.51v4.654a4.977,4.977,0,0,1-4.977,4.977h-8.584l17.365,4.653a4.977,4.977,0,0,0,6.095-3.519l8.055-30.06-2.41-.628.646-2.4,2.408.627,6.114-22.817A4.977,4.977,0,0,0,223.021,7.9ZM205.354,35.366l-2.4-.644.646-2.4,2.4.644Zm3.047-1.758,2.406.644-.642,2.4-2.406-.644Zm-1.48,34.379-2.4-.644L211.6,40.9l2.4.644Zm8.049-30.044-2.4-.644.646-2.4,2.4.644Z" transform="translate(-185.483 0)" fill="#ecb74b"/>
      </g>
    </g>
    <g id="Group_14601" data-name="Group 14601" transform="translate(18.584 15.886)">
      <g id="Group_14600" data-name="Group 14600">
        <path id="Path_28057" data-name="Path 28057" d="M55.909,102.152H18.584v49.766H55.909A2.491,2.491,0,0,0,58.4,149.43V104.64A2.491,2.491,0,0,0,55.909,102.152Zm-4.977,44.79H26.049v-2.488H50.932ZM38.49,136.988a14.93,14.93,0,1,1,14.93-14.93A14.93,14.93,0,0,1,38.49,136.988Z" transform="translate(-18.584 -102.152)" fill="#26dfad"/>
      </g>
    </g>
  </g>
</svg>
