<svg xmlns="http://www.w3.org/2000/svg" width="72.652" height="72.652" viewBox="0 0 72.652 72.652">
  <g id="platform" transform="translate(0 0)">
    <path id="Path_28536" data-name="Path 28536" d="M71.7,315.923,69.564,314.5,39.858,334.226a6.385,6.385,0,0,1-7.063,0L3.088,314.5.951,315.923a2.128,2.128,0,0,0,0,3.546l34.2,22.7a2.128,2.128,0,0,0,2.355,0l34.2-22.7A2.129,2.129,0,0,0,71.7,315.923Z" transform="translate(0 -269.876)" fill="#ecb74b"/>
    <path id="Path_28537" data-name="Path 28537" d="M71.7,234.923,69.565,233.5,39.858,253.226a6.385,6.385,0,0,1-7.064,0L3.089,233.5.952,234.923a2.128,2.128,0,0,0,0,3.546l34.2,22.7a2.128,2.128,0,0,0,2.355,0l34.2-22.7A2.129,2.129,0,0,0,71.7,234.923Z" transform="translate(-0.001 -200.37)" fill="#26dfad"/>
    <path id="Path_28538" data-name="Path 28538" d="M.952,26.606l34.2,22.7a2.128,2.128,0,0,0,2.355,0l34.2-22.7a2.128,2.128,0,0,0,0-3.546L37.5.356a2.128,2.128,0,0,0-2.355,0L.952,23.06a2.128,2.128,0,0,0,0,3.546Zm46.337,5.788a2.128,2.128,0,0,1-2.951.6l-8.011-5.319L28.315,32.99a2.128,2.128,0,0,1-2.355-3.546l9.189-6.1a2.128,2.128,0,0,1,2.355,0l9.189,6.1A2.128,2.128,0,0,1,47.289,32.394ZM17.3,23.7,35.149,11.85a2.128,2.128,0,0,1,2.355,0L55.349,23.7a2.128,2.128,0,1,1-2.355,3.546L36.327,16.178,19.659,27.243A2.128,2.128,0,0,1,17.3,23.7Z" transform="translate(-0.001)" fill="#26dfad"/>
  </g>
</svg>
