<svg id="virtual-reality" xmlns="http://www.w3.org/2000/svg" width="57.777" height="57.777" viewBox="0 0 57.777 57.777">
  <g id="Group_14603" data-name="Group 14603" transform="translate(0 40.194)">
    <g id="Group_14602" data-name="Group 14602">
      <path id="Path_28058" data-name="Path 28058" d="M53.209,288.971l-12.068-4.022A17.041,17.041,0,0,1,28.889,290.4a17.04,17.04,0,0,1-12.253-5.451L4.568,288.972A7.157,7.157,0,0,0,0,295.31v7.222H57.777V295.31A7.154,7.154,0,0,0,53.209,288.971Z" transform="translate(0 -284.949)" fill="#26dfad"/>
    </g>
  </g>
  <g id="Group_14605" data-name="Group 14605" transform="translate(9.629 12.037)">
    <g id="Group_14604" data-name="Group 14604">
      <path id="Path_28059" data-name="Path 28059" d="M101.969,85.335H73.08a4.83,4.83,0,0,0-4.815,4.815v7.222a4.83,4.83,0,0,0,4.815,4.814h28.889a4.83,4.83,0,0,0,4.815-4.815V90.149A4.83,4.83,0,0,0,101.969,85.335ZM77.9,94.964H73.08V90.149H77.9Z" transform="translate(-68.265 -85.335)" fill="#ecb74b"/>
    </g>
  </g>
  <g id="Group_14607" data-name="Group 14607" transform="translate(17.472 32.5)">
    <g id="Group_14606" data-name="Group 14606">
      <path id="Path_28060" data-name="Path 28060" d="M123.863,230.4a11.988,11.988,0,0,0,22.834,0Z" transform="translate(-123.863 -230.4)" fill="#26dfad"/>
    </g>
  </g>
  <g id="Group_14609" data-name="Group 14609" transform="translate(15.571)">
    <g id="Group_14608" data-name="Group 14608">
      <path id="Path_28061" data-name="Path 28061" d="M123.7,0a13.991,13.991,0,0,0-13.318,8.426h26.635C134.912,3.4,129.979,0,123.7,0Z" transform="translate(-110.387)" fill="#26dfad"/>
    </g>
  </g>
</svg>
