<svg xmlns="http://www.w3.org/2000/svg" width="64.995" height="63.379" viewBox="0 0 64.995 63.379">
  <g id="web_1_" data-name="web (1)" transform="translate(-1.001 -1.374)">
    <path id="Path_28516" data-name="Path 28516" d="M33.953,19.333C31.667,8.717,26.792,2,22.284,2S12.9,8.717,10.614,19.333Z" transform="translate(11.215 0.73)" fill="#ecb74b"/>
    <path id="Path_28517" data-name="Path 28517" d="M10,20.673a65.073,65.073,0,0,0,.58,8.679l24.841-.012A65.029,65.029,0,0,0,36,20.673a65.074,65.074,0,0,0-.58-8.679l-24.841.012A65.029,65.029,0,0,0,10,20.673Z" transform="translate(10.499 12.39)" fill="#ecb74b"/>
    <path id="Path_28518" data-name="Path 28518" d="M10.614,22c2.286,10.617,7.161,17.333,11.67,17.333S31.667,32.617,33.953,22Z" transform="translate(11.215 24.063)" fill="#ecb74b"/>
    <path id="Path_28519" data-name="Path 28519" d="M28.274,20.064h13.65A32.625,32.625,0,0,0,19.285,1.374C23.4,4.99,26.619,11.676,28.274,20.064Z" transform="translate(21.331 0)" fill="#26dfad"/>
    <path id="Path_28520" data-name="Path 28520" d="M38.271,12H23.755a70.053,70.053,0,0,1,.535,8.667,70.077,70.077,0,0,1-.538,8.673l14.517-.007a32.283,32.283,0,0,0,0-17.333Z" transform="translate(26.542 12.397)" fill="#26dfad"/>
    <path id="Path_28521" data-name="Path 28521" d="M19.285,40.69A32.625,32.625,0,0,0,41.929,22H28.279C26.619,30.387,23.4,37.073,19.285,40.69Z" transform="translate(21.331 24.063)" fill="#26dfad"/>
    <path id="Path_28522" data-name="Path 28522" d="M15.916,22H2.266A32.625,32.625,0,0,0,24.91,40.69C20.8,37.073,17.571,30.387,15.916,22Z" transform="translate(1.476 24.063)" fill="#26dfad"/>
    <path id="Path_28523" data-name="Path 28523" d="M24.908,1.374A32.625,32.625,0,0,0,2.264,20.064h13.65c1.66-8.387,4.884-15.073,8.994-18.69Z" transform="translate(1.473 0)" fill="#26dfad"/>
    <path id="Path_28524" data-name="Path 28524" d="M16.165,20.67A70.081,70.081,0,0,1,16.7,12L2.186,12a32.283,32.283,0,0,0,0,17.333H16.7a70.055,70.055,0,0,1-.537-8.667Z" transform="translate(0 12.393)" fill="#26dfad"/>
  </g>
</svg>
