<svg id="webpage" xmlns="http://www.w3.org/2000/svg" width="72.652" height="72.652" viewBox="0 0 72.652 72.652">
  <path id="Path_28525" data-name="Path 28525" d="M64.848,0H7.8A7.813,7.813,0,0,0,0,7.8v9.223H72.652V7.8A7.813,7.813,0,0,0,64.848,0ZM10.784,10.642a2.128,2.128,0,1,1,2.128-2.128A2.129,2.129,0,0,1,10.784,10.642Zm8.514,0a2.128,2.128,0,1,1,2.128-2.128A2.129,2.129,0,0,1,19.3,10.642Zm8.514,0a2.128,2.128,0,1,1,2.128-2.128A2.129,2.129,0,0,1,27.812,10.642Z" fill="#26dfad"/>
  <path id="Path_28526" data-name="Path 28526" d="M166.263,241.263a29.138,29.138,0,0,1,1.328-4.952c.1-.263.2-.513.3-.755a14.993,14.993,0,0,0-7.336,7.336c.243-.1.492-.2.755-.3a29.156,29.156,0,0,1,4.952-1.328Z" transform="translate(-137.773 -202.131)" fill="#ecb74b"/>
  <path id="Path_28527" data-name="Path 28527" d="M232.188,390.146a22.987,22.987,0,0,0,.857,2.9c1.1,2.944,2.219,3.606,2.522,3.606s1.418-.663,2.522-3.606a22.964,22.964,0,0,0,.857-2.9c-1.1.079-2.234.121-3.379.121S233.292,390.225,232.188,390.146Z" transform="translate(-199.241 -334.785)" fill="#ecb74b"/>
  <path id="Path_28528" data-name="Path 28528" d="M167.893,382.078c-.1-.243-.2-.492-.3-.755a29.126,29.126,0,0,1-1.328-4.952,29.136,29.136,0,0,1-4.952-1.328c-.263-.1-.513-.2-.755-.3A14.992,14.992,0,0,0,167.893,382.078Z" transform="translate(-137.774 -321.566)" fill="#ecb74b"/>
  <path id="Path_28529" data-name="Path 28529" d="M238.946,232.507a22.987,22.987,0,0,0-.857-2.9c-1.1-2.944-2.219-3.606-2.522-3.606s-1.418.663-2.522,3.606a22.962,22.962,0,0,0-.857,2.9c1.1-.079,2.234-.121,3.379-.121S237.841,232.427,238.946,232.507Z" transform="translate(-199.241 -193.931)" fill="#ecb74b"/>
  <path id="Path_28530" data-name="Path 28530" d="M230.257,309.514c1.394,0,2.757-.066,4.065-.192.126-1.308.192-2.671.192-4.065s-.066-2.757-.192-4.065c-1.308-.126-2.671-.192-4.065-.192s-2.757.066-4.065.192c-.126,1.308-.192,2.671-.192,4.065s.066,2.757.192,4.065C227.5,309.448,228.863,309.514,230.257,309.514Z" transform="translate(-193.931 -258.288)" fill="#ecb74b"/>
  <path id="Path_28531" data-name="Path 28531" d="M157.507,313.946c-.079-1.1-.121-2.234-.121-3.379s.042-2.275.121-3.379a22.982,22.982,0,0,0-2.9.857c-2.944,1.1-3.606,2.219-3.606,2.522s.663,1.418,3.606,2.522A22.947,22.947,0,0,0,157.507,313.946Z" transform="translate(-129.573 -263.598)" fill="#ecb74b"/>
  <path id="Path_28532" data-name="Path 28532" d="M307.078,374.741c-.243.1-.492.2-.755.3a29.131,29.131,0,0,1-4.952,1.328,29.134,29.134,0,0,1-1.328,4.952c-.1.263-.2.513-.3.755A14.992,14.992,0,0,0,307.078,374.741Z" transform="translate(-257.209 -321.566)" fill="#ecb74b"/>
  <path id="Path_28533" data-name="Path 28533" d="M0,193.563a7.813,7.813,0,0,0,7.8,7.8H64.848a7.813,7.813,0,0,0,7.8-7.8V150H0Zm36.326-37.036A19.156,19.156,0,1,1,17.17,175.684,19.178,19.178,0,0,1,36.326,156.527Z" transform="translate(0 -128.715)" fill="#26dfad"/>
  <path id="Path_28534" data-name="Path 28534" d="M301.371,241.263a29.139,29.139,0,0,1,4.952,1.328c.263.1.513.2.755.3a14.993,14.993,0,0,0-7.336-7.336c.1.243.2.492.3.755A29.149,29.149,0,0,1,301.371,241.263Z" transform="translate(-257.209 -202.131)" fill="#ecb74b"/>
  <path id="Path_28535" data-name="Path 28535" d="M315.146,307.188c.079,1.1.121,2.234.121,3.379s-.042,2.275-.121,3.379a23,23,0,0,0,2.9-.857c2.944-1.1,3.606-2.219,3.606-2.522s-.663-1.418-3.606-2.522A22.948,22.948,0,0,0,315.146,307.188Z" transform="translate(-270.427 -263.598)" fill="#ecb74b"/>
</svg>
