<svg xmlns="http://www.w3.org/2000/svg" width="64.323" height="72.27" viewBox="0 0 64.323 72.27">
  <g id="XMLID_2_" transform="translate(-25.274)">
    <g id="Group_14881" data-name="Group 14881" transform="translate(25.274)">
      <g id="Group_14880" data-name="Group 14880" transform="translate(0)">
        <path id="Path_28539" data-name="Path 28539" d="M77.833,282.952a15.717,15.717,0,0,1-12.722,6.491H57.782a5.856,5.856,0,0,1-5.5-3.857,18.584,18.584,0,0,1-2.96-1.17,19.936,19.936,0,0,1-5.529-4.092,23.608,23.608,0,0,0-18.514,23.049v1.475a3.672,3.672,0,0,0,3.672,3.672H85.924a3.672,3.672,0,0,0,3.672-3.672v-1.475A23.591,23.591,0,0,0,77.833,282.952Z" transform="translate(-25.274 -236.25)" fill="#26dfad"/>
        <path id="Path_28540" data-name="Path 28540" d="M95.79,36.5a4.18,4.18,0,0,0,3.664-2.166l.057.153.017.046a16.321,16.321,0,0,0,9.2,9.689,5.849,5.849,0,0,1,4.957-2.741h7.329a4.1,4.1,0,0,0,2.008-.54,8.284,8.284,0,0,0,2.368-2.735,21.133,21.133,0,0,0,1.833-3.874,4.2,4.2,0,0,0,1.156,1.332v1.8a7.373,7.373,0,0,1-7.365,7.365h-7.329a2.509,2.509,0,0,0,0,5.018h7.329A12.4,12.4,0,0,0,133.4,37.465v-1.8a4.175,4.175,0,0,0,1.673-3.345V21.856a4.175,4.175,0,0,0-1.736-3.391,20.06,20.06,0,0,0-39.992,0,4.175,4.175,0,0,0-1.736,3.391V32.322A4.184,4.184,0,0,0,95.79,36.5ZM113.34,5.018a15.062,15.062,0,0,1,14.968,13.55,4.2,4.2,0,0,0-1.175,1.452c-2.367-6.177-7.652-10.477-13.792-10.477-6.273,0-11.473,4.448-13.783,10.452l-.009.025a4.2,4.2,0,0,0-1.175-1.452A15.063,15.063,0,0,1,113.34,5.018Z" transform="translate(-81.179)" fill="#ecb74b"/>
      </g>
    </g>
  </g>
</svg>
